<svg width="192" height="192" viewBox="0 0 192 192" fill="none" xmlns="http://www.w3.org/2000/svg">
  <rect width="192" height="192" rx="24" fill="#2563eb"/>
  <g transform="translate(32, 32)">
    <!-- Icono de recursos/inventario -->
    <rect x="20" y="20" width="88" height="88" rx="8" fill="white" fill-opacity="0.1" stroke="white" stroke-width="2"/>
    <rect x="32" y="32" width="64" height="64" rx="4" fill="white" fill-opacity="0.2"/>
    
    <!-- Elementos de inventario -->
    <rect x="40" y="40" width="48" height="8" rx="2" fill="white"/>
    <rect x="40" y="56" width="32" height="8" rx="2" fill="white" fill-opacity="0.8"/>
    <rect x="40" y="72" width="40" height="8" rx="2" fill="white" fill-opacity="0.6"/>
    
    <!-- Icono de préstamo/intercambio -->
    <circle cx="24" cy="96" r="12" fill="white" fill-opacity="0.9"/>
    <path d="M18 96 L24 90 L30 96 M24 90 L24 102" stroke="#2563eb" stroke-width="2" stroke-linecap="round" stroke-linejoin="round"/>
    
    <circle cx="104" cy="96" r="12" fill="white" fill-opacity="0.9"/>
    <path d="M110 96 L104 102 L98 96 M104 102 L104 90" stroke="#2563eb" stroke-width="2" stroke-linecap="round" stroke-linejoin="round"/>
    
    <!-- Texto AIP -->
    <text x="64" y="120" text-anchor="middle" fill="white" font-family="Arial, sans-serif" font-size="16" font-weight="bold">AIP</text>
  </g>
</svg>